<svg width="450" height="138" viewBox="0 0 450 138" fill="none" xmlns="http://www.w3.org/2000/svg">
<path d="M44.8848 64.5371C42.3691 67.0527 41.1113 70.0924 41.1113 73.6562C41.1113 77.2201 42.3691 80.2747 44.8848 82.8203C47.4303 85.3359 50.485 86.5938 54.0488 86.5938C57.6126 86.5938 60.6523 85.3359 63.168 82.8203C65.7135 80.2747 66.9863 77.2201 66.9863 73.6562C66.9863 70.0924 65.7135 67.0527 63.168 64.5371C60.6523 61.9915 57.6126 60.7188 54.0488 60.7188C50.485 60.7188 47.4303 61.9915 44.8848 64.5371ZM42.5938 85.1113C39.4492 81.9368 37.877 78.1185 37.877 73.6562C37.877 69.194 39.4492 65.3906 42.5938 62.2461C45.7682 59.0716 49.5866 57.4844 54.0488 57.4844C58.5111 57.4844 62.3145 59.0716 65.459 62.2461C68.6335 65.3906 70.2207 69.194 70.2207 73.6562C70.2207 78.1185 68.6335 81.9368 65.459 85.1113C62.3145 88.2559 58.5111 89.8281 54.0488 89.8281C49.5866 89.8281 45.7682 88.2559 42.5938 85.1113ZM40.3027 59.9551C36.5293 63.7585 34.6426 68.3255 34.6426 73.6562C34.6426 78.987 36.5293 83.554 40.3027 87.3574C44.1061 91.1608 48.6882 93.0625 54.0488 93.0625C59.4095 93.0625 63.9766 91.1608 67.75 87.3574C71.5534 83.554 73.4551 78.987 73.4551 73.6562C73.4551 68.3255 71.5534 63.7585 67.75 59.9551C63.9766 56.1517 59.4095 54.25 54.0488 54.25C48.6882 54.25 44.1061 56.1517 40.3027 59.9551ZM34.418 85.0215C32.4115 81.5475 31.4082 77.7591 31.4082 73.6562C31.4082 69.5534 32.4115 65.765 34.418 62.291C36.4544 58.8171 39.2096 56.0768 42.6836 54.0703C46.1576 52.0339 49.946 51.0156 54.0488 51.0156C58.1517 51.0156 61.9401 52.0339 65.4141 54.0703C68.888 56.0768 71.6283 58.8171 73.6348 62.291C75.6712 65.765 76.6895 69.5534 76.6895 73.6562C76.6895 77.7591 75.6712 81.5475 73.6348 85.0215C71.6283 88.4954 68.888 91.2507 65.4141 93.2871C61.9401 95.2936 58.1517 96.2969 54.0488 96.2969C49.946 96.2969 46.1576 95.2936 42.6836 93.2871C39.2096 91.2507 36.4544 88.4954 34.418 85.0215ZM30.1953 63.6387C28.8477 66.8132 28.1738 70.1523 28.1738 73.6562C28.1738 77.1602 28.8477 80.5143 30.1953 83.7188C31.5729 86.8932 33.4147 89.6484 35.7207 91.9844C38.0566 94.2904 40.8118 96.1322 43.9863 97.5098C47.1908 98.8574 50.5449 99.5312 54.0488 99.5312C57.5527 99.5312 60.8919 98.8574 64.0664 97.5098C67.2708 96.1322 70.026 94.2904 72.332 91.9844C74.668 89.6484 76.5098 86.8932 77.8574 83.7188C79.235 80.5143 79.9238 77.1602 79.9238 73.6562C79.9238 70.1523 79.235 66.8132 77.8574 63.6387C76.5098 60.4342 74.668 57.679 72.332 55.373C70.026 53.0371 67.2708 51.1953 64.0664 49.8477C60.8919 48.4701 57.5527 47.7812 54.0488 47.7812C50.5449 47.7812 47.1908 48.4701 43.9863 49.8477C40.8118 51.1953 38.0566 53.0371 35.7207 55.373C33.4147 57.679 31.5729 60.4342 30.1953 63.6387ZM27.2305 84.9766C25.7031 81.3828 24.9395 77.6094 24.9395 73.6562C24.9395 69.7031 25.7031 65.9297 27.2305 62.3359C28.7878 58.7422 30.8542 55.6576 33.4297 53.082C36.0352 50.4766 39.1348 48.4102 42.7285 46.8828C46.3223 45.3255 50.0957 44.5469 54.0488 44.5469C58.002 44.5469 61.7754 45.3255 65.3691 46.8828C68.9629 48.4102 72.0475 50.4766 74.623 53.082C77.2285 55.6576 79.2949 58.7422 80.8223 62.3359C82.3796 65.9297 83.1582 69.7031 83.1582 73.6562C83.1582 77.6094 82.3796 81.3828 80.8223 84.9766C79.2949 88.5703 77.2285 91.6699 74.623 94.2754C72.0475 96.8509 68.9629 98.9173 65.3691 100.475C61.7754 102.002 58.002 102.766 54.0488 102.766C50.0957 102.766 46.3223 102.002 42.7285 100.475C39.1348 98.9173 36.0352 96.8509 33.4297 94.2754C30.8542 91.6699 28.7878 88.5703 27.2305 84.9766ZM24.2656 61.123C22.5586 65.1061 21.7051 69.2839 21.7051 73.6562C21.7051 78.0286 22.5586 82.2214 24.2656 86.2344C25.9727 90.2174 28.2637 93.6615 31.1387 96.5664C34.0436 99.4414 37.4876 101.732 41.4707 103.439C45.4837 105.146 49.6764 106 54.0488 106C58.4212 106 62.599 105.146 66.582 103.439C70.5951 101.732 74.0391 99.4414 76.9141 96.5664C79.819 93.6615 82.125 90.2174 83.832 86.2344C85.5391 82.2214 86.3926 78.0286 86.3926 73.6562C86.3926 69.2839 85.5391 65.1061 83.832 61.123C82.125 57.11 79.819 53.666 76.9141 50.791C74.0391 47.8861 70.5951 45.5801 66.582 43.873C62.599 42.166 58.4212 41.3125 54.0488 41.3125C49.6764 41.3125 45.4837 42.166 41.4707 43.873C37.4876 45.5801 34.0436 47.8861 31.1387 50.791C28.2637 53.666 25.9727 57.11 24.2656 61.123ZM21.3008 87.4922C19.4141 83.0898 18.4707 78.4779 18.4707 73.6562C18.4707 68.8346 19.4141 64.2376 21.3008 59.8652C23.1875 55.4629 25.7181 51.6745 28.8926 48.5C32.0671 45.3255 35.8405 42.7949 40.2129 40.9082C44.6152 39.0215 49.2272 38.0781 54.0488 38.0781C58.8704 38.0781 63.4674 39.0215 67.8398 40.9082C72.2422 42.7949 76.0306 45.3255 79.2051 48.5C82.3796 51.6745 84.9102 55.4629 86.7969 59.8652C88.6836 64.2376 89.627 68.8346 89.627 73.6562C89.627 78.4779 88.6836 83.0898 86.7969 87.4922C84.9102 91.8646 82.3796 95.638 79.2051 98.8125C76.0306 101.987 72.2422 104.518 67.8398 106.404C63.4674 108.291 58.8704 109.234 54.0488 109.234C49.2272 109.234 44.6152 108.291 40.2129 106.404C35.8405 104.518 32.0671 101.987 28.8926 98.8125C25.7181 95.638 23.1875 91.8646 21.3008 87.4922ZM139.355 77.3398V41.3125H142.59V77.3398C142.59 80.7539 141.272 83.6888 138.637 86.1445C136.031 88.6003 132.887 89.8281 129.203 89.8281C125.52 89.8281 122.36 88.6003 119.725 86.1445C117.119 83.6888 115.816 80.7539 115.816 77.3398V41.3125H119.051V77.3398C119.051 79.8854 120.039 82.0716 122.016 83.8984C124.022 85.6953 126.418 86.5938 129.203 86.5938C131.988 86.5938 134.369 85.6953 136.346 83.8984C138.352 82.0716 139.355 79.8854 139.355 77.3398ZM145.824 77.3398V41.3125H149.059V77.3398C149.059 82.5807 147.112 87.0579 143.219 90.7715C139.326 94.4551 134.654 96.2969 129.203 96.2969C123.753 96.2969 119.081 94.4551 115.188 90.7715C111.294 87.0579 109.348 82.5807 109.348 77.3398V41.3125H112.582V77.3398C112.582 81.6823 114.199 85.3958 117.434 88.4805C120.698 91.5352 124.621 93.0625 129.203 93.0625C133.755 93.0625 137.663 91.5352 140.928 88.4805C144.192 85.3958 145.824 81.6823 145.824 77.3398ZM152.293 77.3398V41.3125H155.527V77.3398C155.527 81.9219 154.344 86.1745 151.979 90.0977C149.613 93.9909 146.408 97.0755 142.365 99.3516C138.322 101.628 133.935 102.766 129.203 102.766C124.471 102.766 120.084 101.628 116.041 99.3516C111.998 97.0755 108.794 93.9909 106.428 90.0977C104.062 86.1745 102.879 81.9219 102.879 77.3398V41.3125H106.113V77.3398C106.113 81.3229 107.146 85.0215 109.213 88.4355C111.279 91.8496 114.079 94.5599 117.613 96.5664C121.177 98.543 125.04 99.5312 129.203 99.5312C133.366 99.5312 137.214 98.543 140.748 96.5664C144.312 94.5599 147.127 91.8496 149.193 88.4355C151.26 85.0215 152.293 81.3229 152.293 77.3398ZM158.762 77.3398V41.3125H161.996V77.3398C161.996 81.6523 161.128 85.7852 159.391 89.7383C157.654 93.6615 155.318 97.0456 152.383 99.8906C149.448 102.736 145.959 104.997 141.916 106.674C137.873 108.381 133.635 109.234 129.203 109.234C124.771 109.234 120.533 108.381 116.49 106.674C112.447 104.997 108.958 102.736 106.023 99.8906C103.089 97.0456 100.753 93.6615 99.0156 89.7383C97.2786 85.7852 96.4102 81.6523 96.4102 77.3398V41.3125H99.6445V77.3398C99.6445 82.4909 100.962 87.2676 103.598 91.6699C106.263 96.0723 109.857 99.5612 114.379 102.137C118.931 104.712 123.872 106 129.203 106C134.534 106 139.46 104.712 143.982 102.137C148.535 99.5612 152.128 96.0723 154.764 91.6699C157.429 87.2676 158.762 82.4909 158.762 77.3398ZM181.582 59.2363H184.816V106H181.582V59.2363ZM168.645 44.5469V41.3125H217.16V44.5469H168.645ZM168.645 51.0156V47.7812H217.16V51.0156H168.645ZM168.645 57.4844V54.25H217.16V57.4844H168.645ZM200.988 59.2363H204.223V106H200.988V59.2363ZM194.52 59.2363H197.754V106H194.52V59.2363ZM188.051 59.2363H191.285V106H188.051V59.2363ZM246.943 106H243.709V41.3125H274.57V44.5469H246.943V47.7812H274.57V51.0156H246.943V54.25H274.57V57.4844H246.943V67.3672H272.414V70.6016H246.943V73.8359H272.414V77.0703H246.943V80.3047H272.414V83.5391H246.943V106ZM240.475 106H237.24V41.3125H240.475V106ZM234.006 106H230.771V41.3125H234.006V106ZM227.537 106H224.303V41.3125H227.537V106ZM301.299 41.3125H304.533V106H301.299V41.3125ZM294.83 41.3125H298.064V106H294.83V41.3125ZM288.361 41.3125H291.596V106H288.361V41.3125ZM281.893 41.3125H285.127V106H281.893V41.3125ZM324.434 59.2363H327.668V106H324.434V59.2363ZM311.496 44.5469V41.3125H360.012V44.5469H311.496ZM311.496 51.0156V47.7812H360.012V51.0156H311.496ZM311.496 57.4844V54.25H360.012V57.4844H311.496ZM343.84 59.2363H347.074V106H343.84V59.2363ZM337.371 59.2363H340.605V106H337.371V59.2363ZM330.902 59.2363H334.137V106H330.902V59.2363ZM425.328 89.8281V93.0625H400.217L402.283 89.8281H425.328ZM425.328 96.2969V99.5312H396.219L398.24 96.2969H425.328ZM425.328 102.766V106H392.625L394.602 102.766H425.328ZM366.705 57.5293V54.2949H391.861L389.84 57.5293H366.705ZM366.705 51.0605V47.8262H395.635L393.568 51.0605H366.705ZM366.705 44.5918V41.3574H399.273L397.117 44.5918H366.705ZM389.48 106H385.482L425.732 41.3574V46.8379L389.48 106ZM381.484 106H377.531L417.871 41.3574H421.779L381.484 106ZM373.488 106H369.535L409.785 41.3574H413.783L373.488 106ZM365.537 106V99.4414L401.834 41.3574H405.832L365.537 106Z" fill="#FCA502"/>
<line y1="16.5" x2="450" y2="16.5" stroke="#293746" stroke-width="5"/>
<path d="M0 127.5H165" stroke="#293746" stroke-width="5"/>
<path d="M285 128H450" stroke="#293746" stroke-width="5"/>
<path d="M189.712 127.312H195.104V129.328H189.712V127.312ZM189.904 131.92H196V134H187.328V122.8H195.792V124.88H189.904V131.92ZM201.742 134.192C200.846 134.192 199.988 134.075 199.166 133.84C198.345 133.595 197.684 133.28 197.182 132.896L198.062 130.944C198.542 131.285 199.108 131.568 199.758 131.792C200.42 132.005 201.086 132.112 201.758 132.112C202.27 132.112 202.681 132.064 202.99 131.968C203.31 131.861 203.545 131.717 203.694 131.536C203.844 131.355 203.918 131.147 203.918 130.912C203.918 130.613 203.801 130.379 203.566 130.208C203.332 130.027 203.022 129.883 202.638 129.776C202.254 129.659 201.828 129.552 201.358 129.456C200.9 129.349 200.436 129.221 199.966 129.072C199.508 128.923 199.086 128.731 198.702 128.496C198.318 128.261 198.004 127.952 197.758 127.568C197.524 127.184 197.406 126.693 197.406 126.096C197.406 125.456 197.577 124.875 197.918 124.352C198.27 123.819 198.793 123.397 199.486 123.088C200.19 122.768 201.07 122.608 202.126 122.608C202.83 122.608 203.524 122.693 204.206 122.864C204.889 123.024 205.492 123.269 206.014 123.6L205.214 125.568C204.692 125.269 204.169 125.051 203.646 124.912C203.124 124.763 202.612 124.688 202.11 124.688C201.609 124.688 201.198 124.747 200.878 124.864C200.558 124.981 200.329 125.136 200.19 125.328C200.052 125.509 199.982 125.723 199.982 125.968C199.982 126.256 200.1 126.491 200.334 126.672C200.569 126.843 200.878 126.981 201.262 127.088C201.646 127.195 202.068 127.301 202.526 127.408C202.996 127.515 203.46 127.637 203.918 127.776C204.388 127.915 204.814 128.101 205.198 128.336C205.582 128.571 205.892 128.88 206.126 129.264C206.372 129.648 206.494 130.133 206.494 130.72C206.494 131.349 206.318 131.925 205.966 132.448C205.614 132.971 205.086 133.392 204.382 133.712C203.689 134.032 202.809 134.192 201.742 134.192ZM210.429 134V124.912H206.845V122.8H216.605V124.912H213.021V134H210.429ZM218.237 134.128C217.81 134.128 217.442 133.984 217.133 133.696C216.834 133.397 216.685 133.019 216.685 132.56C216.685 132.101 216.834 131.733 217.133 131.456C217.442 131.168 217.81 131.024 218.237 131.024C218.674 131.024 219.042 131.168 219.341 131.456C219.639 131.733 219.789 132.101 219.789 132.56C219.789 133.019 219.639 133.397 219.341 133.696C219.042 133.984 218.674 134.128 218.237 134.128ZM225.387 134V132.32L229.707 128.24C230.049 127.931 230.299 127.653 230.459 127.408C230.619 127.163 230.726 126.939 230.779 126.736C230.843 126.533 230.875 126.347 230.875 126.176C230.875 125.728 230.721 125.387 230.411 125.152C230.113 124.907 229.67 124.784 229.083 124.784C228.614 124.784 228.177 124.875 227.771 125.056C227.377 125.237 227.041 125.52 226.763 125.904L224.875 124.688C225.302 124.048 225.899 123.541 226.667 123.168C227.435 122.795 228.321 122.608 229.323 122.608C230.155 122.608 230.881 122.747 231.499 123.024C232.129 123.291 232.614 123.669 232.955 124.16C233.307 124.651 233.483 125.237 233.483 125.92C233.483 126.283 233.435 126.645 233.339 127.008C233.254 127.36 233.073 127.733 232.795 128.128C232.529 128.523 232.134 128.965 231.611 129.456L228.027 132.832L227.531 131.888H233.851V134H225.387ZM239.721 134.192C238.804 134.192 237.982 133.968 237.257 133.52C236.532 133.061 235.961 132.4 235.545 131.536C235.129 130.672 234.921 129.627 234.921 128.4C234.921 127.173 235.129 126.128 235.545 125.264C235.961 124.4 236.532 123.744 237.257 123.296C237.982 122.837 238.804 122.608 239.721 122.608C240.649 122.608 241.47 122.837 242.185 123.296C242.91 123.744 243.481 124.4 243.897 125.264C244.313 126.128 244.521 127.173 244.521 128.4C244.521 129.627 244.313 130.672 243.897 131.536C243.481 132.4 242.91 133.061 242.185 133.52C241.47 133.968 240.649 134.192 239.721 134.192ZM239.721 132C240.158 132 240.537 131.877 240.857 131.632C241.188 131.387 241.444 130.997 241.625 130.464C241.817 129.931 241.913 129.243 241.913 128.4C241.913 127.557 241.817 126.869 241.625 126.336C241.444 125.803 241.188 125.413 240.857 125.168C240.537 124.923 240.158 124.8 239.721 124.8C239.294 124.8 238.916 124.923 238.585 125.168C238.265 125.413 238.009 125.803 237.817 126.336C237.636 126.869 237.545 127.557 237.545 128.4C237.545 129.243 237.636 129.931 237.817 130.464C238.009 130.997 238.265 131.387 238.585 131.632C238.916 131.877 239.294 132 239.721 132ZM245.622 134V132.32L249.942 128.24C250.283 127.931 250.534 127.653 250.694 127.408C250.854 127.163 250.96 126.939 251.014 126.736C251.078 126.533 251.11 126.347 251.11 126.176C251.11 125.728 250.955 125.387 250.646 125.152C250.347 124.907 249.904 124.784 249.318 124.784C248.848 124.784 248.411 124.875 248.006 125.056C247.611 125.237 247.275 125.52 246.998 125.904L245.11 124.688C245.536 124.048 246.134 123.541 246.902 123.168C247.67 122.795 248.555 122.608 249.558 122.608C250.39 122.608 251.115 122.747 251.734 123.024C252.363 123.291 252.848 123.669 253.19 124.16C253.542 124.651 253.718 125.237 253.718 125.92C253.718 126.283 253.67 126.645 253.574 127.008C253.488 127.36 253.307 127.733 253.03 128.128C252.763 128.523 252.368 128.965 251.846 129.456L248.262 132.832L247.766 131.888H254.086V134H245.622ZM255.059 134V132.32L259.379 128.24C259.721 127.931 259.971 127.653 260.131 127.408C260.291 127.163 260.398 126.939 260.451 126.736C260.515 126.533 260.547 126.347 260.547 126.176C260.547 125.728 260.393 125.387 260.083 125.152C259.785 124.907 259.342 124.784 258.755 124.784C258.286 124.784 257.849 124.875 257.443 125.056C257.049 125.237 256.713 125.52 256.435 125.904L254.547 124.688C254.974 124.048 255.571 123.541 256.339 123.168C257.107 122.795 257.993 122.608 258.995 122.608C259.827 122.608 260.553 122.747 261.171 123.024C261.801 123.291 262.286 123.669 262.627 124.16C262.979 124.651 263.155 125.237 263.155 125.92C263.155 126.283 263.107 126.645 263.011 127.008C262.926 127.36 262.745 127.733 262.467 128.128C262.201 128.523 261.806 128.965 261.283 129.456L257.699 132.832L257.203 131.888H263.523V134H255.059Z" fill="#293746"/>
</svg>
