<svg width="303" height="101" viewBox="0 0 303 101" fill="none" xmlns="http://www.w3.org/2000/svg">
<rect y="11" width="303" height="90" rx="5" fill="#23343F"/>
<path d="M111.682 68.483V38.8182H119.392V89H111.682V80.5057H111.159C109.983 83.054 108.153 85.2211 105.67 87.0071C103.188 88.7713 100.051 89.6534 96.2614 89.6534C93.125 89.6534 90.3371 88.9673 87.8977 87.5952C85.4583 86.2012 83.5417 84.1103 82.1477 81.3224C80.7538 78.5128 80.0568 74.9735 80.0568 70.7045V38.8182H87.767V70.1818C87.767 73.8409 88.7907 76.7595 90.8381 78.9375C92.9072 81.1155 95.5426 82.2045 98.7443 82.2045C100.661 82.2045 102.61 81.7145 104.592 80.7344C106.596 79.7543 108.273 78.2514 109.624 76.2259C110.996 74.2003 111.682 71.6193 111.682 68.483ZM155.338 38.8182V45.3523H129.332V38.8182H155.338ZM136.912 26.7955H144.622V74.625C144.622 76.803 144.938 78.4366 145.569 79.5256C146.223 80.5928 147.05 81.3116 148.052 81.6818C149.076 82.0303 150.154 82.2045 151.287 82.2045C152.136 82.2045 152.833 82.161 153.377 82.0739C153.922 81.965 154.358 81.8778 154.684 81.8125L156.252 88.7386C155.73 88.9347 155 89.1307 154.064 89.3267C153.127 89.5445 151.94 89.6534 150.502 89.6534C148.324 89.6534 146.19 89.1851 144.099 88.2486C142.03 87.312 140.309 85.8854 138.937 83.9688C137.587 82.0521 136.912 79.6345 136.912 76.7159V26.7955ZM189.282 38.8182V45.3523H162.231V38.8182H189.282ZM170.333 89V31.892C170.333 29.017 171.009 26.6212 172.359 24.7045C173.709 22.7879 175.463 21.3504 177.619 20.392C179.775 19.4337 182.051 18.9545 184.447 18.9545C186.342 18.9545 187.888 19.107 189.086 19.4119C190.284 19.7169 191.177 20 191.765 20.2614L189.544 26.9261C189.152 26.7955 188.607 26.6321 187.91 26.4361C187.235 26.2401 186.342 26.142 185.231 26.142C182.683 26.142 180.842 26.7846 179.71 28.0696C178.599 29.3546 178.044 31.2386 178.044 33.7216V89H170.333ZM200.088 89V38.8182H207.798V89H200.088ZM204.009 30.4545C202.506 30.4545 201.21 29.9427 200.121 28.919C199.054 27.8954 198.52 26.6648 198.52 25.2273C198.52 23.7898 199.054 22.5592 200.121 21.5355C201.21 20.5118 202.506 20 204.009 20C205.511 20 206.796 20.5118 207.864 21.5355C208.953 22.5592 209.497 23.7898 209.497 25.2273C209.497 26.6648 208.953 27.8954 207.864 28.919C206.796 29.9427 205.511 30.4545 204.009 30.4545ZM243.744 38.8182V45.3523H217.738V38.8182H243.744ZM225.318 26.7955H233.028V74.625C233.028 76.803 233.344 78.4366 233.975 79.5256C234.629 80.5928 235.457 81.3116 236.458 81.6818C237.482 82.0303 238.56 82.2045 239.693 82.2045C240.542 82.2045 241.239 82.161 241.784 82.0739C242.328 81.965 242.764 81.8778 243.091 81.8125L244.659 88.7386C244.136 88.9347 243.406 89.1307 242.47 89.3267C241.533 89.5445 240.346 89.6534 238.909 89.6534C236.731 89.6534 234.596 89.1851 232.505 88.2486C230.436 87.312 228.716 85.8854 227.343 83.9688C225.993 82.0521 225.318 79.6345 225.318 76.7159V26.7955ZM253.904 89V83.1193L282.393 46.5284V46.0057H254.819V38.8182H292.325V44.9602L264.62 81.2898V81.8125H293.24V89H253.904Z" fill="#FFB01B"/>
<path d="M69.5568 55.5455C69.5568 62.6023 68.2827 68.7008 65.7344 73.8409C63.1861 78.9811 59.6903 82.9451 55.2472 85.733C50.804 88.5208 45.7292 89.9148 40.0227 89.9148C34.3163 89.9148 29.2415 88.5208 24.7983 85.733C20.3551 82.9451 16.8594 78.9811 14.3111 73.8409C11.7628 68.7008 10.4886 62.6023 10.4886 55.5455C10.4886 48.4886 11.7628 42.3902 14.3111 37.25C16.8594 32.1098 20.3551 28.1458 24.7983 25.358C29.2415 22.5701 34.3163 21.1761 40.0227 21.1761C45.7292 21.1761 50.804 22.5701 55.2472 25.358C59.6903 28.1458 63.1861 32.1098 65.7344 37.25C68.2827 42.3902 69.5568 48.4886 69.5568 55.5455ZM61.7159 55.5455C61.7159 49.7519 60.7467 44.8622 58.8082 40.8764C56.8916 36.8906 54.2888 33.8741 51 31.8267C47.733 29.7794 44.0739 28.7557 40.0227 28.7557C35.9716 28.7557 32.3016 29.7794 29.0128 31.8267C25.7457 33.8741 23.143 36.8906 21.2045 40.8764C19.2879 44.8622 18.3295 49.7519 18.3295 55.5455C18.3295 61.339 19.2879 66.2287 21.2045 70.2145C23.143 74.2003 25.7457 77.2169 29.0128 79.2642C32.3016 81.3116 35.9716 82.3352 40.0227 82.3352C44.0739 82.3352 47.733 81.3116 51 79.2642C54.2888 77.2169 56.8916 74.2003 58.8082 70.2145C60.7467 66.2287 61.7159 61.339 61.7159 55.5455Z" fill="#F4E2D1"/>
</svg>
